{"title":"Boss S01E02 HDTV 720P (2011) NL Subs TBS","uid":6794537,"size":1565956502,"categoryP":"video","categoryS":"hd___tv_shows","magnet":"?xt=urn:btih:0cd500bd6b9bf11fcaea9c989d0014d98c52e3a5&amp;dn=Boss+S01E02+HDTV+720P+%282011%29+NL+Subs+TBS&amp;tr=udp%3A%2F%2Ftracker.openbittorrent.com%3A80&amp;tr=udp%3A%2F%2Fopen.demonii.com%3A1337&amp;tr=udp%3A%2F%2Ftracker.coppersurfer.tk%3A6969&amp;tr=udp%3A%2F%2Fexodus.desync.com%3A6969","seeders":0,"leechers":1,"uploader":"spookkie","files":-1,"time":1320399397,"description":"[img]http://img85.imageshack.us/img85/3095/boss2011.jpg[/img]\n\nBoss S01E02 HDTV 720P (2011) NL Subs TBS\n\nThe series follows Tom Kane, the mayor of Chicago, who has recently been diagnosed with a degenerative neurological disorder. Determined to remain in charge, Kane conceals the disease from everyone around him except his own physician, Dr Ella Harris. Those around Kane are too busy with their own lives to notice anything unusual. Kane's marriage to his wife Meredith is nothing more than one of convenience. Kane's closest advisors, Kitty O'Neill and Ezra Stone, begin to suspect something is wrong with the Mayor but respect him too much to ask any questions, while State Treasurer Ben Zajac is too busy cultivating his political ambitions to become the next Governor of Illinois to notice anything out of the ordinary. Kane's daughter, Emma, is the only one who suspects that something is wrong with her father. But does she know enough to uncover his secret and what will it mean for his political career?\n\n\n\nVideo\nID                               : 1\nFormat                           : AVC\nFormat/Info                      : Advanced Video Codec\nFormat profile                   : &lt;a class=&quot;__cf_email__&quot; href=&quot;/cdn-cgi/l/email-protection&quot; data-cfemail=&quot;4a02232d220a067e647b&quot;&gt;[email&amp;#160;protected]&lt;/a&gt;&lt;script cf-hash='f9e31' type=&quot;text/javascript&quot;&gt;\n/* &lt;![CDATA[ */!function(){try{var t=&quot;currentScript&quot;in document?document.currentScript:function(){for(var t=document.getElementsByTagName(&quot;script&quot;),e=t.length;e--;)if(t[e].getAttribute(&quot;cf-hash&quot;))return t[e]}();if(t&amp;&amp;t.previousSibling){var e,r,n,i,c=t.previousSibling,a=c.getAttribute(&quot;data-cfemail&quot;);if(a){for(e=&quot;&quot;,r=parseInt(a.substr(0,2),16),n=2;a.length-n;n+=2)i=parseInt(a.substr(n,2),16)^r,e+=String.fromCharCode(i);e=document.createTextNode(e),c.parentNode.replaceChild(e,c)}}}catch(u){}}();/* ]]&gt; */&lt;/script&gt;\nFormat settings, CABAC           : Yes\nFormat settings, ReFrames        : 8 frames\nFormat settings, GOP             : M=1, N=57\nCodec ID                         : V_MPEG4/ISO/AVC\nDuration                         : 54mn 38s\nBit rate                         : 3 360 Kbps\nWidth                            : 1 280 pixels\nHeight                           : 720 pixels\nDisplay aspect ratio             : 16:9\nFrame rate                       : 23.976 fps\nColor space                      : YUV\nChroma subsampling               : 4:2:0\nBit depth                        : 8 bits\nScan type                        : Progressive\nBits/(Pixel*Frame)               : 0.152\nStream size                      : 1.28 GiB (88%)\nWriting library                  : x264 core 119 r2106 07efeb4\n\nAudio\nID                               : 2\nFormat                           : AC-3\nFormat/Info                      : Audio Coding 3\nMode extension                   : CM (complete main)\nCodec ID                         : A_AC3\nDuration                         : 54mn 38s\nBit rate mode                    : Constant\nBit rate                         : 384 Kbps\nChannel(s)                       : 6 channels\nChannel positions                : Front: L C R, Side: L R, LFE\nSampling rate                    : 48.0 KHz\nBit depth                        : 16 bits\nCompression mode                 : Lossy\nStream size                      : 150 MiB (10%)\n\n\n\nSubs: Custom NL (Instelbaar)\n\nText\nID                               : 3\nFormat                           : UTF-8\nCodec ID                         : S_TEXT/UTF8\nCodec ID/Info                    : UTF-8 Plain Text\n &lt;a href=&quot;\nhttp://www.imdb.com/title/tt1833285/&quot; rel=&quot;nofollow&quot; target=&quot;_NEW&quot;&gt;\nhttp://www.imdb.com/title/tt1833285/&lt;/a&gt; &lt;a href=&quot;\nhttp://www.thetvdb.com/index.php?tab=series&amp;id=249361&quot; rel=&quot;nofollow&quot; target=&quot;_NEW&quot;&gt;\nhttp://www.thetvdb.com/index.php?tab=series&amp;id=249361&lt;/a&gt;\n\n\nUploaded by Spookkie@TBS\n\nCheck or Site\n  &lt;a href=&quot;\nhttp://black-sam.org/index.php&quot; rel=&quot;nofollow&quot; target=&quot;_NEW&quot;&gt;\nhttp://black-sam.org/index.php&lt;/a&gt;\t\t\n","torrent":{"xt":"urn:btih:0cd500bd6b9bf11fcaea9c989d0014d98c52e3a5","amp;dn":"Boss+S01E02+HDTV+720P+%282011%29+NL+Subs+TBS","amp;tr":["udp%3A%2F%2Ftracker.openbittorrent.com%3A80","udp%3A%2F%2Fopen.demonii.com%3A1337","udp%3A%2F%2Ftracker.coppersurfer.tk%3A6969","udp%3A%2F%2Fexodus.desync.com%3A6969"],"infoHash":"0cd500bd6b9bf11fcaea9c989d0014d98c52e3a5","infoHashBuffer":{"type":"Buffer","data":[12,213,0,189,107,155,241,31,202,234,156,152,157,0,20,217,140,82,227,165]},"announce":[],"urlList":[]}}